<svg xmlns="http://www.w3.org/2000/svg" viewBox="0 0 200 200" width="200" height="200">
  <!-- Bicycle Frame -->
  <path d="M100,150 C90,130 80,100 100,80 C120,100 110,130 100,150 Z" fill="#E74C3C" stroke="black" stroke-width="1"/>
  <path d="M100,150 C110,130 120,100 100,80 C80,100 90,130 100,150 Z" fill="#E74C3C" stroke="black" stroke-width="1"/>

  <!-- Wheels -->
  <circle cx="70" cy="170" r="15" fill="black"/>
  <circle cx="130" cy="170" r="15" fill="black"/>

  <!-- Handlebars -->
  <path d="M90,100 L90,80 L110,80 L110,100" fill="none" stroke="black" stroke-width="3"/>

  <!-- Basket -->
  <path d="M95,90 L95,75 L105,75 L105,90" fill="#F39C12" stroke="black" stroke-width="1"/>

  <!-- Pelican -->
  <circle cx="100" cy="100" r="20" fill="#8B4513" stroke="black" stroke-width="1"/>
  <path d="M100,100 C110,95 115,85 100,80 C85,85 90,95 100,100 Z" fill="#D2B48C" stroke="black" stroke-width="1"/>
  <path d="M100,90 L100,85 L105,85 L105,90" fill="#D2B48C" stroke="black" stroke-width="1"/>
  <path d="M90,95 L110,95 L115,85 L85,85 Z" fill="#D2B48C" stroke="black" stroke-width="1"/>
  <path d="M100,120 C110,115 115,105 100,100 C85,105 90,115 100,120 Z" fill="#D2B48C" stroke="black" stroke-width="1"/>
  <path d="M90,115 L110,115 L115,105 L85,105 Z" fill="#D2B48C" stroke="black" stroke-width="1"/>

  <!-- Beak -->
  <path d="M100,85 C105,80 110,75 100,70 C90,75 95,80 100,85 Z" fill="#FFD700" stroke="black" stroke-width="1"/>

  <!-- Eye -->
  <circle cx="102" cy="95" r="2" fill="black"/>
</svg>
