<svg xmlns="http://www.w3.org/2000/svg" viewBox="0 0 500 500"><title>Pelican Riding a Bicycle</title><desc>A pelican sitting on a bicycle, with its wings outstretched.</desc><g stroke="black" fill="none"><path d="M100 300 Q200 250, 300 300 Q400 350, 300 400 Q200 450, 100 400"/><circle cx="300" cy="300" r="80" fill="lightgrey"/><path d="M270 300 L330 300"/><path d="M290 350 Q310 400, 330 350 Z"/></g><g stroke="black" fill="none"><path d="M270 300 L280 260 L290 300"/><path d="M280 260 L290 240 L300 260"/></g><g stroke="black" fill="none"><path d="M150 200 Q200 150, 250 200 Q300 250, 250 300 Q200 350, 150 300"/><circle cx="250" cy="200" r="80" fill="white"/><path d="M240 200 L260 200"/></g></svg>